<?xml version="1.0" standalone="no"?>
<!DOCTYPE svg PUBLIC "-//W3C//DTD SVG 20010904//EN"
 "http://www.w3.org/TR/2001/REC-SVG-20010904/DTD/svg10.dtd">
<svg version="1.0" xmlns="http://www.w3.org/2000/svg"
 width="260.000000pt" height="260.000000pt" viewBox="0 0 260.000000 260.000000"
 preserveAspectRatio="xMidYMid meet">
<metadata>
Created by potrace 1.11, written by Peter Selinger 2001-2013
</metadata>
<g transform="translate(0.000000,260.000000) scale(0.100000,-0.100000)"
fill="#000000" stroke="none">
<path d="M1239 2579 c-101 -46 -102 -189 -1 -238 29 -15 32 -20 32 -68 l0 -52
-41 -11 c-83 -23 -159 -124 -159 -213 0 -88 58 -172 142 -207 l53 -22 -1 -52
c-1 -63 -8 -76 -38 -76 -13 0 -55 -16 -92 -35 l-69 -34 -42 41 -41 41 20 38
c10 21 21 62 22 91 10 165 -151 277 -306 214 l-57 -23 -35 36 c-34 34 -35 39
-25 68 51 147 -152 245 -237 116 -56 -87 6 -203 109 -203 21 0 47 4 57 10 15
8 25 3 54 -25 41 -39 42 -42 21 -81 -51 -98 -19 -220 76 -288 57 -40 146 -47
214 -17 l49 22 42 -42 43 -42 -25 -37 c-71 -107 -72 -257 -2 -370 l27 -45 -42
-42 -42 -43 -41 20 c-114 57 -248 9 -301 -108 -29 -62 -28 -130 3 -194 l18
-38 -38 -36 c-25 -25 -42 -34 -54 -29 -38 15 -68 15 -108 0 -76 -29 -105 -129
-58 -201 18 -27 72 -54 109 -54 39 0 91 27 111 58 20 30 26 95 13 130 -8 20
-3 30 27 61 l37 37 45 -23 c88 -44 195 -23 260 52 42 47 54 77 57 143 2 39 -4
66 -20 97 l-22 44 44 43 43 42 30 -18 c61 -36 85 -46 126 -52 l42 -6 1 -63 1
-63 -33 -8 c-100 -22 -176 -134 -163 -240 10 -88 80 -172 157 -189 28 -6 32
-13 32 -60 0 -48 -4 -65 -15 -65 -36 -1 -88 -77 -88 -127 0 -66 67 -133 133
-133 83 0 149 81 131 163 -8 37 -61 97 -85 97 -19 0 -21 6 -21 55 0 59 1 61
47 73 52 14 110 67 133 122 50 118 -10 255 -130 298 l-48 17 0 61 0 61 41 7
c43 7 112 38 141 63 16 14 21 12 62 -29 l45 -44 -21 -34 c-28 -45 -31 -159 -6
-205 60 -111 193 -156 301 -102 l46 24 36 -37 c32 -32 35 -41 26 -58 -17 -32
-13 -94 8 -128 21 -34 75 -64 116 -64 72 0 128 60 128 137 0 83 -75 143 -157
125 -43 -9 -46 -8 -82 29 l-37 38 19 38 c24 50 24 146 0 192 -24 45 -72 90
-115 108 -51 22 -139 19 -188 -6 l-40 -20 -42 44 -41 44 24 36 c26 37 43 81
49 125 4 23 8 25 70 28 56 2 67 0 67 -13 0 -28 38 -91 74 -122 71 -63 177 -70
263 -17 38 24 54 42 78 92 l30 62 53 -2 c48 -1 55 -4 68 -30 44 -86 179 -89
228 -6 55 92 -7 201 -114 201 -57 0 -93 -23 -117 -75 -16 -37 -18 -38 -69 -38
l-52 0 -10 43 c-22 84 -107 154 -195 161 -100 8 -200 -57 -231 -151 l-16 -48
-60 0 c-33 0 -60 5 -61 10 -3 44 -28 114 -57 159 l-24 39 41 40 41 39 49 -21
c160 -69 328 48 316 219 -1 27 -12 66 -24 85 l-20 35 38 42 c33 35 42 40 54
29 24 -20 92 -16 130 7 42 27 60 61 60 115 0 69 -47 121 -113 127 -57 5 -74
-1 -112 -40 -32 -35 -38 -47 -37 -83 0 -23 4 -51 8 -62 7 -16 0 -28 -29 -57
l-37 -37 -39 19 c-156 75 -330 -40 -320 -212 2 -34 12 -71 23 -91 l21 -34 -43
-41 -43 -41 -69 34 c-37 19 -81 37 -98 39 -16 2 -32 5 -35 5 -3 1 -5 27 -4 58
1 60 2 61 63 84 152 57 184 271 56 377 -20 16 -54 34 -76 41 l-39 12 0 54 c0
42 4 55 15 55 8 0 30 15 49 34 59 60 59 132 1 190 -41 41 -90 50 -146 25z
m106 -61 c37 -32 37 -83 1 -115 -34 -29 -68 -29 -102 0 -35 31 -37 77 -4 112
29 31 70 32 105 3z m-831 -329 c51 -23 53 -99 4 -133 -32 -22 -62 -20 -94 7
-34 30 -35 79 -3 113 25 26 54 30 93 13z m1654 -13 c31 -27 30 -79 -3 -111
-27 -28 -38 -30 -83 -14 -79 27 -52 152 33 147 17 -1 40 -11 53 -22z m-786
-58 c60 -42 79 -123 45 -190 -28 -54 -73 -80 -137 -80 -53 0 -108 31 -131 73
-16 31 -18 100 -3 136 14 33 65 78 99 86 35 8 98 -4 127 -25z m-506 -194 c70
-33 99 -131 60 -200 -31 -54 -68 -78 -126 -80 -136 -7 -207 154 -113 255 44
47 112 57 179 25z m992 -5 c80 -49 88 -175 15 -239 -118 -104 -296 23 -237
168 34 88 140 121 222 71z m-467 -376 c124 -55 186 -199 142 -328 -55 -163
-265 -229 -403 -127 -46 34 -56 47 -85 107 -104 212 127 445 346 348z m666
-111 c33 -18 64 -68 70 -112 13 -93 -75 -180 -169 -167 -124 17 -175 169 -85
254 51 50 120 59 184 25z m442 -78 c35 -45 24 -96 -26 -122 -34 -18 -52 -14
-84 17 -35 36 -37 69 -4 105 33 36 86 36 114 0z m-1600 -436 c96 -94 29 -258
-106 -258 -40 0 -106 36 -126 69 -51 86 -7 208 82 227 14 3 30 7 36 8 25 6 86
-19 114 -46z m959 21 c62 -38 87 -151 46 -206 -38 -50 -71 -68 -129 -68 -114
0 -182 107 -136 211 37 82 140 112 219 63z m-490 -206 c61 -45 81 -107 57
-176 -24 -70 -96 -110 -170 -95 -136 28 -165 206 -46 277 44 27 119 24 159 -6z
m-848 -193 c28 -28 30 -82 3 -112 -53 -60 -159 5 -131 81 19 52 90 69 128 31z
m1637 -2 c25 -24 30 -72 10 -99 -42 -55 -125 -40 -141 27 -7 26 15 79 36 87
31 13 73 6 95 -15z m-820 -328 c1 0 9 -12 16 -27 22 -43 5 -91 -38 -109 -44
-18 -79 -6 -100 37 -14 26 -15 36 -4 60 16 40 54 59 93 48 17 -5 32 -9 33 -9z"/>
<path d="M2 1302 l3 -45 388 0 c213 1 398 2 412 2 34 1 53 47 30 70 -14 14
-67 16 -426 17 l-410 1 3 -45z"/>
</g>
</svg>
