<?xml version="1.0" encoding="UTF-8" standalone="no"?>
<!DOCTYPE svg PUBLIC "-//W3C//DTD SVG 1.1//EN" "http://www.w3.org/Graphics/SVG/1.1/DTD/svg11.dtd">
<svg width="100%" height="100%" viewBox="0 0 442 120" version="1.1" xmlns="http://www.w3.org/2000/svg" xmlns:xlink="http://www.w3.org/1999/xlink" xml:space="preserve" style="fill-rule:evenodd;clip-rule:evenodd;stroke-linecap:round;stroke-linejoin:round;stroke-miterlimit:1.5;">
    <g transform="matrix(1,0,0,1,-9,-108)">
        <g>
            <g transform="matrix(0.548868,0,0,0.431681,-49.7905,72.3332)">
                <path d="M305.934,202.637C305.934,192.206 299.273,183.736 291.068,183.736L123.877,183.736C115.672,183.736 109.011,192.206 109.011,202.637L109.011,240.44C109.011,250.871 115.672,259.341 123.877,259.341L291.068,259.341C299.273,259.341 305.934,250.871 305.934,240.44L305.934,202.637Z" style="fill:none;stroke:rgb(39,44,58);stroke-width:4.05px;"/>
            </g>
            <g transform="matrix(1,0,0,1,-102.73,-189.226)">
                <text x="121.854px" y="363.277px" style="font-family:'OpenSans', 'Open Sans', sans-serif;font-size:16px;fill:rgb(39,44,58);">br<tspan x="137.87px 146.768px " y="363.277px 363.277px ">an</tspan>ch_task</text>
            </g>
        </g>
        <g transform="matrix(0.485252,0,0,0.431681,301.503,72.3332)">
            <path d="M305.934,202.637C305.934,192.206 298.4,183.736 289.12,183.736L125.825,183.736C116.545,183.736 109.011,192.206 109.011,202.637L109.011,240.44C109.011,250.871 116.545,259.341 125.825,259.341L289.12,259.341C298.4,259.341 305.934,250.871 305.934,240.44L305.934,202.637Z" style="fill:none;stroke:rgb(39,44,58);stroke-width:4.35px;"/>
        </g>
        <g transform="matrix(1,0,0,1,241.628,-189.226)">
            <text x="127.887px" y="363.277px" style="font-family:'OpenSans', 'Open Sans', sans-serif;font-size:16px;fill:rgb(39,44,58);">join_task</text>
        </g>
        <g transform="matrix(0.722975,0,0,0.431681,80.0025,30.7947)">
            <path d="M305.934,202.637C305.934,192.206 300.877,183.736 294.648,183.736L120.297,183.736C114.068,183.736 109.011,192.206 109.011,202.637L109.011,240.44C109.011,250.871 114.068,259.341 120.297,259.341L294.648,259.341C300.877,259.341 305.934,250.871 305.934,240.44L305.934,202.637Z" style="fill:none;stroke:rgb(39,44,58);stroke-width:3.36px;"/>
        </g>
        <g transform="matrix(1,0,0,1,46.0421,-230.764)">
            <text x="123.126px" y="363.277px" style="font-family:'OpenSans', 'Open Sans', sans-serif;font-size:16px;fill:rgb(39,44,58);">lane1_print_task</text>
        </g>
        <g transform="matrix(0.722975,0,0,0.431681,80.0025,72.3332)">
            <path d="M305.934,202.637C305.934,192.206 300.877,183.736 294.648,183.736L120.297,183.736C114.068,183.736 109.011,192.206 109.011,202.637L109.011,240.44C109.011,250.871 114.068,259.341 120.297,259.341L294.648,259.341C300.877,259.341 305.934,250.871 305.934,240.44L305.934,202.637Z" style="fill:none;stroke:rgb(39,44,58);stroke-width:3.36px;"/>
        </g>
        <g transform="matrix(1,0,0,1,46.0421,-189.226)">
            <text x="123.126px" y="363.277px" style="font-family:'OpenSans', 'Open Sans', sans-serif;font-size:16px;fill:rgb(39,44,58);">lane2_print_task</text>
        </g>
        <g transform="matrix(0.722975,0,0,0.431681,80.0025,113.872)">
            <path d="M305.934,202.637C305.934,192.206 300.877,183.736 294.648,183.736L120.297,183.736C114.068,183.736 109.011,192.206 109.011,202.637L109.011,240.44C109.011,250.871 114.068,259.341 120.297,259.341L294.648,259.341C300.877,259.341 305.934,250.871 305.934,240.44L305.934,202.637Z" style="fill:none;stroke:rgb(39,44,58);stroke-width:3.36px;"/>
        </g>
        <g transform="matrix(1,0,0,1,46.0421,-147.687)">
            <text x="123.126px" y="363.277px" style="font-family:'OpenSans', 'Open Sans', sans-serif;font-size:16px;fill:rgb(39,44,58);">lane3_print_task</text>
        </g>
        <g transform="matrix(0.174959,0,0,0.497656,72.0258,30.1545)">
            <path d="M283.569,279.033L283.569,274.813L442.815,274.813L438.815,269.89L470.822,276.923L438.815,283.956L442.815,279.033L283.569,279.033Z" style="fill:rgb(176,180,202);stroke:rgb(176,180,202);stroke-width:2.68px;"/>
        </g>
        <g transform="matrix(0.234957,0,0,0.497656,239.1,30.1545)">
            <path d="M283.569,279.033L283.569,274.813L449.967,274.813L446.988,269.89L470.822,276.923L446.988,283.956L449.967,279.033L283.569,279.033Z" style="fill:rgb(176,180,202);stroke:rgb(176,180,202);stroke-width:2.57px;"/>
        </g>
        <g transform="matrix(0.232358,0.121536,-0.230655,0.440976,304.198,-19.7219)">
            <path d="M283.569,279.033L283.569,274.813L452.136,274.813L449.466,269.89L470.822,276.923L449.466,283.956L452.136,279.033L283.569,279.033Z" style="fill:rgb(176,180,202);stroke:rgb(176,180,202);stroke-width:2.51px;"/>
        </g>
        <g transform="matrix(0.232358,-0.121536,-0.230655,-0.440976,304.198,356.1)">
            <path d="M283.569,279.033L283.569,274.813L452.136,274.813L449.466,269.89L470.822,276.923L449.466,283.956L452.136,279.033L283.569,279.033Z" style="fill:rgb(176,180,202);stroke:rgb(176,180,202);stroke-width:2.51px;"/>
        </g>
        <g transform="matrix(0.180235,-0.125843,0.284899,0.408037,-11.3569,74.8177)">
            <path d="M283.569,279.033L283.569,274.813L448.531,274.813L445.347,269.89L470.822,276.923L445.347,283.956L448.531,279.033L283.569,279.033Z" style="fill:rgb(176,180,202);stroke:rgb(176,180,202);stroke-width:2.6px;"/>
        </g>
        <g transform="matrix(0.180235,0.125843,0.284899,-0.408037,-11.3569,260.151)">
            <path d="M283.569,279.033L283.569,274.813L448.531,274.813L445.347,269.89L470.822,276.923L445.347,283.956L448.531,279.033L283.569,279.033Z" style="fill:rgb(176,180,202);stroke:rgb(176,180,202);stroke-width:2.6px;"/>
        </g>
    </g>
</svg>
