<?xml version="1.0" encoding="UTF-8" standalone="no"?>
<!DOCTYPE svg PUBLIC "-//W3C//DTD SVG 1.1//EN" "http://www.w3.org/Graphics/SVG/1.1/DTD/svg11.dtd">
<svg width="100%" height="100%" viewBox="0 0 453 200" version="1.1" xmlns="http://www.w3.org/2000/svg" xmlns:xlink="http://www.w3.org/1999/xlink" xml:space="preserve" style="fill-rule:evenodd;clip-rule:evenodd;stroke-linecap:round;stroke-linejoin:round;stroke-miterlimit:1.5;">
    <g transform="matrix(1,0,0,1,-2,-683)">
        <g transform="matrix(0.833051,0,0,1,1.67654,652.118)">
            <g transform="matrix(0.548868,0,0,0.431681,-49.7905,72.3332)">
                <path d="M305.934,202.637C305.934,192.206 297.938,183.736 288.089,183.736L126.856,183.736C117.007,183.736 109.011,192.206 109.011,202.637L109.011,240.44C109.011,250.871 117.007,259.341 126.856,259.341L288.089,259.341C297.938,259.341 305.934,250.871 305.934,240.44L305.934,202.637Z" style="fill:none;stroke:rgb(39,44,58);stroke-width:4.5px;"/>
            </g>
            <g transform="matrix(1.20041,0,0,1,-126.966,-189.226)">
                <text x="121.213px" y="363.277px" style="font-family:'OpenSans', 'Open Sans', sans-serif;font-size:16px;fill:rgb(39,44,58);">stor<tspan x="150.37px 159.346px " y="363.277px 363.277px ">e_</tspan>task</text>
            </g>
        </g>
        <g transform="matrix(1,0,0,1,112.743,652.118)">
            <g transform="matrix(0.548868,0,0,0.431681,-49.7905,72.3332)">
                <path d="M305.934,202.637C305.934,192.206 299.273,183.736 291.068,183.736L123.877,183.736C115.672,183.736 109.011,192.206 109.011,202.637L109.011,240.44C109.011,250.871 115.672,259.341 123.877,259.341L291.068,259.341C299.273,259.341 305.934,250.871 305.934,240.44L305.934,202.637Z" style="fill:none;stroke:rgb(39,44,58);stroke-width:4.05px;"/>
            </g>
            <g transform="matrix(1,0,0,1,-102.73,-189.226)">
                <text x="121.999px" y="363.277px" style="font-family:'OpenSans', 'Open Sans', sans-serif;font-size:16px;fill:rgb(39,44,58);">modify_task</text>
            </g>
        </g>
        <g transform="matrix(1.11524,0,0,1,76.4571,282.228)">
            <g transform="matrix(0.722975,0,0,0.431681,80.0025,442.223)">
                <path d="M305.934,202.637C305.934,192.206 301.4,183.736 295.815,183.736L119.13,183.736C113.545,183.736 109.011,192.206 109.011,202.637L109.011,240.44C109.011,250.871 113.545,259.341 119.13,259.341L295.815,259.341C301.4,259.341 305.934,250.871 305.934,240.44L305.934,202.637Z" style="fill:none;stroke:rgb(39,44,58);stroke-width:3.09px;"/>
            </g>
            <g transform="matrix(0.89667,0,0,1,58.5381,180.664)">
                <text x="121.971px" y="363.277px" style="font-family:'OpenSans', 'Open Sans', sans-serif;font-size:16px;fill:rgb(39,44,58);">add_ﬁlename_task</text>
            </g>
        </g>
        <g transform="matrix(1.40547,0,0,1,30.3645,326.789)">
            <g transform="matrix(0.722975,0,0,0.431681,80.0025,442.223)">
                <path d="M305.934,202.637C305.934,192.206 302.336,183.736 297.904,183.736L117.041,183.736C112.609,183.736 109.011,192.206 109.011,202.637L109.011,240.44C109.011,250.871 112.609,259.341 117.041,259.341L297.904,259.341C302.336,259.341 305.934,250.871 305.934,240.44L305.934,202.637Z" style="fill:none;stroke:rgb(39,44,58);stroke-width:2.56px;"/>
            </g>
            <g transform="matrix(0.711507,0,0,1,77.0424,180.664)">
                <text x="122.723px" y="363.277px" style="font-family:'OpenSans', 'Open Sans', sans-serif;font-size:16px;fill:rgb(39,44,58);">add_mor<tspan x="189.161px 198.137px " y="363.277px 363.277px ">e_</tspan>ﬁlename_task</text>
            </g>
        </g>
        <g transform="matrix(0.0860356,0,0,0.497656,79.2313,682.273)">
            <path d="M283.569,279.033L283.569,274.813L413.869,274.813L405.733,269.89L470.822,276.923L405.733,283.956L413.869,279.033L283.569,279.033Z" style="fill:rgb(176,180,202);stroke:rgb(176,180,202);stroke-width:2.8px;"/>
        </g>
        <g transform="matrix(2.05688e-17,-0.335915,0.497656,3.04727e-17,-82.7503,894.739)">
            <path d="M283.569,279.033L283.569,274.813L456.235,274.813L454.151,269.89L470.822,276.923L454.151,283.956L456.235,279.033L283.569,279.033Z" style="fill:rgb(58,181,71);stroke:rgb(58,181,71);stroke-width:2.36px;"/>
        </g>
        <g transform="matrix(2.05688e-17,-0.335915,0.497656,3.04727e-17,39.0153,894.739)">
            <path d="M283.569,279.033L283.569,274.813L456.235,274.813L454.151,269.89L470.822,276.923L454.151,283.956L456.235,279.033L283.569,279.033Z" style="fill:rgb(58,181,71);stroke:rgb(58,181,71);stroke-width:2.36px;"/>
        </g>
        <g transform="matrix(2.05688e-17,-0.335915,0.497656,3.04727e-17,195.149,894.739)">
            <path d="M283.569,279.033L283.569,274.813L456.235,274.813L454.151,269.89L470.822,276.923L454.151,283.956L456.235,279.033L283.569,279.033Z" style="fill:rgb(58,181,71);stroke:rgb(58,181,71);stroke-width:2.36px;"/>
        </g>
        <g transform="matrix(3.50789e-17,-0.572882,0.497656,3.04727e-17,294.021,1006.31)">
            <path d="M283.569,279.033L283.569,274.813L462.269,274.813L461.047,269.89L470.822,276.923L461.047,283.956L462.269,279.033L283.569,279.033Z" style="fill:rgb(58,181,71);stroke:rgb(58,181,71);stroke-width:1.86px;"/>
        </g>
        <g transform="matrix(1,5.65074e-17,-1.32953e-16,1,-305.496,529.091)">
            <g>
                <text x="315.058px" y="232.879px" style="font-family:'SourceCodePro-Regular', 'Source Code Pro', monospace;font-size:14px;fill:rgb(249,38,114);">set()</text>
                <text x="306.658px" y="250.879px" style="font-family:'SourceCodePro-Regular', 'Source Code Pro', monospace;font-size:14px;fill:rgb(249,38,114);">push()</text>
            </g>
        </g>
        <g transform="matrix(1,5.65074e-17,-1.32953e-16,1,-27.5966,537.107)">
            <text x="306.658px" y="232.879px" style="font-family:'SourceCodePro-Regular', 'Source Code Pro', monospace;font-size:14px;fill:rgb(249,38,114);">push()</text>
        </g>
        <g transform="matrix(1,5.65074e-17,-1.32953e-16,1,65.1991,529.091)">
            <g>
                <text x="312.735px" y="232.879px" style="font-family:'SourceCodePro-Regular', 'Source Code Pro', monospace;font-size:14px;fill:rgb(249,38,114);">push()</text>
                <text x="295.935px" y="250.879px" style="font-family:'SourceCodePro-Regular', 'Source Code Pro', monospace;font-size:14px;fill:rgb(249,38,114);">extend()</text>
            </g>
        </g>
        <g transform="matrix(1,5.65074e-17,-1.32953e-16,1,-183.731,521.382)">
            <g>
                <text x="315.058px" y="232.879px" style="font-family:'SourceCodePro-Regular', 'Source Code Pro', monospace;font-size:14px;fill:rgb(249,38,114);">get()</text>
                <text x="315.058px" y="250.879px" style="font-family:'SourceCodePro-Regular', 'Source Code Pro', monospace;font-size:14px;fill:rgb(249,38,114);">set()</text>
                <text x="306.658px" y="268.879px" style="font-family:'SourceCodePro-Regular', 'Source Code Pro', monospace;font-size:14px;fill:rgb(249,38,114);">push()</text>
            </g>
        </g>
        <g transform="matrix(1.52024,0,0,0.37039,-5.22439,514.578)">
            <path d="M10.042,585.917L301.856,585.917" style="fill:none;stroke:rgb(103,116,152);stroke-width:1.81px;"/>
        </g>
        <g transform="matrix(1,0,0,1,126.717,0)">
            <g transform="matrix(2.85851,0,0,2.85851,37.9126,683.475)">
                <path d="M6,6C7.235,6 8.388,5.888 9.461,5.664C10.534,5.44 11.38,5.109 12,4.672L12,6C12,6.359 11.732,6.693 11.195,7C10.658,7.307 9.929,7.551 9.007,7.73C8.085,7.909 7.082,7.999 5.999,8C4.916,8.001 3.913,7.911 2.991,7.73C2.069,7.549 1.34,7.306 0.803,7C0.266,6.694 -0.002,6.361 -0.002,6L-0.002,4.672C0.618,5.109 1.464,5.44 2.537,5.664C3.61,5.888 4.763,6 5.998,6L6,6ZM6,12C7.235,12 8.388,11.888 9.461,11.664C10.534,11.44 11.38,11.109 12,10.672L12,12C12,12.359 11.732,12.693 11.195,13C10.658,13.307 9.929,13.551 9.007,13.73C8.085,13.909 7.082,13.999 5.999,14C4.916,14.001 3.913,13.911 2.991,13.73C2.069,13.549 1.34,13.306 0.803,13C0.266,12.694 -0.002,12.361 -0.002,12L-0.002,10.672C0.618,11.109 1.464,11.44 2.537,11.664C3.61,11.888 4.763,12 5.998,12L6,12ZM6,9C7.235,9 8.388,8.888 9.461,8.664C10.534,8.44 11.38,8.109 12,7.672L12,9C12,9.359 11.732,9.693 11.195,10C10.658,10.307 9.929,10.551 9.007,10.73C8.085,10.909 7.082,10.999 5.999,11C4.916,11.001 3.913,10.911 2.991,10.73C2.069,10.549 1.34,10.306 0.803,10C0.266,9.694 -0.002,9.361 -0.002,9L-0.002,7.672C0.618,8.109 1.464,8.44 2.537,8.664C3.61,8.888 4.763,9 5.998,9L6,9ZM6,0C7.083,0 8.086,0.09 9.008,0.27C9.93,0.45 10.659,0.693 11.196,1C11.733,1.307 12.001,1.64 12.001,2L12.001,3C12.001,3.359 11.733,3.693 11.196,4C10.659,4.307 9.93,4.551 9.008,4.73C8.086,4.909 7.083,4.999 6,5C4.917,5.001 3.914,4.911 2.992,4.73C2.07,4.549 1.341,4.306 0.804,4C0.267,3.694 -0.001,3.361 -0.001,3L-0.001,2C-0.001,1.641 0.267,1.307 0.804,1C1.341,0.693 2.07,0.449 2.992,0.27C3.914,0.091 4.917,0.001 6,0L6,0Z" style="fill:rgb(103,116,152);fill-rule:nonzero;"/>
            </g>
            <g id="MongoDB_Gray_Logo_FullColor_RGB" transform="matrix(0.0111296,0,0,0.0111296,127.343,703.485)">
                <g transform="matrix(1,0,0,1,-4045.83,-1154.17)">
                    <g transform="matrix(4.16667,0,0,4.16667,0,0)">
                        <path d="M133.25,540.152L118.782,535.361C118.782,535.361 120.626,462.139 94.219,457.013C76.804,436.835 96.897,-404.881 160.161,454.127C160.161,454.127 138.507,465.001 134.409,483.463C130.312,501.937 133.25,540.152 133.25,540.152Z" style="fill:url(#_Linear1);"/>
                        <path d="M141.049,469.443C141.049,469.443 266.764,386.644 237.311,214.686C208.947,89.757 141.983,48.689 134.786,33.008C126.865,21.912 118.886,2.247 118.886,2.247L124.233,350.335C124.233,350.335 113.171,456.622 141.049,469.443Z" style="fill:url(#_Linear2);"/>
                        <path d="M111.422,474.069C111.422,474.069 -6.503,393.623 0.282,251.682C7.067,109.738 90.357,39.949 106.579,27.288C117.066,16.105 117.5,11.798 118.311,0.77C125.662,16.558 124.441,236.621 125.219,262.341C128.242,362.468 119.674,455.169 111.422,474.069Z" style="fill:url(#_Linear3);"/>
                        <path d="M1536.34,428.252C1544.68,434.922 1561.36,437.668 1576.06,437.668C1595.13,437.668 1613.8,434.132 1632.06,417.665C1650.73,400.791 1663.44,374.904 1663.44,333.717C1663.44,294.099 1648.35,261.933 1617.37,243.104C1599.89,232.122 1577.25,227.809 1551.43,227.809C1543.89,227.809 1536.34,228.199 1531.97,230.16C1530.78,230.945 1528.39,234.084 1528.39,235.656C1527.6,242.714 1527.6,296.453 1527.6,328.225C1527.6,360.781 1527.6,406.283 1528.39,411.78C1528.8,416.484 1531.18,424.721 1536.34,428.252ZM1457.06,210.156C1463.81,210.156 1489.47,211.332 1501.39,211.332C1523.63,211.332 1539.12,210.156 1580.82,210.156C1615.78,210.156 1645.17,219.571 1666.22,237.612C1691.64,259.581 1705.15,290.176 1705.15,327.44C1705.15,380.396 1680.92,410.991 1656.69,428.252C1632.46,446.294 1601.08,456.494 1556.2,456.494C1532.37,456.494 1491.45,455.709 1457.29,455.322L1456.83,455.322C1455.24,452.179 1459.75,439.947 1462.55,439.629C1471.78,438.583 1474.28,438.229 1478.57,436.463C1485.78,433.497 1487.48,429.822 1488.28,416.876C1489.47,392.558 1489.08,363.532 1489.08,330.579C1489.08,307.045 1489.47,261.15 1488.68,246.635C1487.48,234.476 1482.33,231.34 1472,228.983C1466.83,227.809 1459.68,226.63 1449.76,225.453C1448.96,223.102 1455.08,212.507 1457.06,210.156Z" style="fill:rgb(193,191,190);fill-rule:nonzero;"/>
                        <path d="M1810.33,229.378C1808.75,229.771 1806.76,233.694 1806.76,235.656C1806.36,249.773 1805.97,286.646 1805.97,312.14C1805.97,312.925 1807.15,314.102 1807.95,314.102C1813.12,314.499 1825.82,314.891 1836.54,314.891C1851.64,314.891 1860.38,312.925 1865.15,310.571C1877.86,304.299 1883.81,290.568 1883.81,275.663C1883.81,241.537 1859.98,228.591 1824.64,228.591C1822.25,228.591 1815.49,228.591 1810.33,229.378ZM1900.49,386.281C1900.49,351.763 1875.08,332.152 1828.6,332.152C1826.62,332.152 1811.92,331.755 1808.35,332.544C1807.15,332.933 1805.97,333.717 1805.97,334.501C1805.97,359.217 1805.56,398.835 1806.76,414.522C1807.55,421.191 1812.32,430.606 1818.28,433.352C1824.64,436.883 1838.93,437.668 1848.86,437.668C1876.27,437.668 1900.49,422.368 1900.49,386.281ZM1738.6,210.156C1742.17,210.156 1752.75,211.332 1779.75,211.332C1805.17,211.332 1825.82,210.551 1850.45,210.551C1881.03,210.551 1923.13,221.532 1923.13,267.035C1923.13,289.392 1907.25,307.437 1886.6,316.068C1885.4,316.461 1885.4,317.245 1886.6,317.637C1915.99,325.087 1941.8,343.132 1941.8,377.65C1941.8,411.384 1920.75,432.568 1890.17,445.906C1871.5,454.14 1848.47,456.886 1825.02,456.886C1807.15,456.886 1759.26,454.925 1732.64,455.322C1729.86,454.14 1735.19,441.586 1737.57,439.629C1743.93,439.237 1748.83,438.779 1755.58,436.818C1765.11,434.464 1766.24,431.391 1767.43,417.268C1768.23,405.112 1768.23,361.571 1768.23,330.579C1768.23,288.214 1768.63,259.581 1768.23,245.461C1767.83,234.476 1763.86,230.945 1756.31,228.983C1750.36,227.809 1740.43,226.63 1732.49,225.453C1730.5,223.492 1736.61,211.725 1738.6,210.156Z" style="fill:rgb(193,191,190);fill-rule:nonzero;"/>
                        <path d="M317.65,456.322C316.988,455.266 316.288,452.146 316.435,448.391C316.543,445.538 317.111,443.726 317.645,443.105C325.136,441.923 328.683,441.124 332.892,439.999C339.914,438.257 342.562,434.465 342.974,425.483C344.128,404.327 344.194,364.658 343.773,336.758L343.778,335.936C343.811,332.943 343.858,328.851 340.099,325.965C334.59,322.337 327.723,319.334 319.031,316.727C315.706,315.742 313.867,313.995 313.966,311.949C314.07,309.983 316.156,307.485 320.492,306.649C331.993,305.463 362.15,298.285 373.982,292.825C374.682,293.675 375.788,295.52 375.575,298.462C375.486,299.699 375.377,300.993 375.268,302.333C374.932,306.275 374.554,310.745 374.554,315.2C374.554,316.512 375.977,317.755 377.486,317.755C378.252,317.755 378.961,317.456 379.539,316.886C402.091,299.237 422.261,292.937 432.645,292.937C449.707,292.937 462.986,301.082 473.248,317.825C473.849,318.712 474.658,319.179 475.561,319.179C476.422,319.179 477.235,318.736 477.712,318.026C498.45,302.315 519,292.937 532.739,292.937C565.255,292.937 584.678,317.25 584.678,357.961C584.678,369.66 584.56,384.488 584.456,398.331C584.356,410.474 584.271,421.859 584.271,429.738C584.271,431.648 586.825,436.945 590.683,438.004C595.436,440.316 602.307,441.498 610.98,442.993L611.316,443.049C611.973,445.379 610.593,454.458 609.273,456.317C607.122,456.298 604.137,456.144 600.425,455.957C593.672,455.611 584.422,455.145 573.65,455.145C552.043,455.145 540.755,455.57 529.972,456.266C529.159,453.571 528.876,444.884 529.864,443.072C536.154,441.895 539.265,441.102 543.039,439.985C549.915,437.72 551.896,434.605 552.298,425.483C552.454,418.992 553.703,361.898 551.489,348.34C549.452,334.292 538.849,317.848 515.663,317.848C507.065,317.848 493.166,321.421 479.921,331.453C479.098,332.251 478.625,333.801 478.625,334.82L478.649,335.081C480.209,342.4 480.209,350.932 480.209,363.846C480.209,371.206 480.162,379.015 480.12,386.767C480.03,402.507 479.945,417.372 480.209,428.599C480.209,436.254 484.844,438.079 488.57,439.555C490.594,440.004 492.202,440.391 493.81,440.774C496.931,441.526 500.161,442.301 504.943,443.067C505.594,444.576 505.656,449.082 504.758,452.936C504.256,455.066 503.679,456.004 503.377,456.308C491.36,455.897 479.032,455.537 461.246,455.537C455.855,455.537 447.05,455.77 439.285,455.976C432.991,456.144 427.027,456.308 423.641,456.322C423.149,455.547 422.464,453.062 422.464,449.485C422.464,446.159 423.073,443.814 423.703,443.091C425.372,442.782 426.961,442.502 428.479,442.231C432.65,441.489 436.253,440.854 439.71,440.004C445.598,438.211 447.806,434.941 448.237,427.464C449.386,410.006 450.284,359.722 447.811,347.126C443.603,326.918 432.082,316.676 413.583,316.676C402.734,316.676 389.044,321.888 377.85,330.271C375.973,331.654 374.554,335.133 374.554,338.346C374.554,344.333 374.535,351.465 374.512,359.11C374.436,384.367 374.346,415.802 374.961,429.407C375.339,433.587 376.795,438.565 384.688,440.401C386.409,440.882 389.393,441.382 392.85,441.951C394.841,442.283 397.017,442.642 399.254,443.044C400.058,445.206 399.566,453.683 398.189,456.322C394.738,456.298 390.491,456.102 385.62,455.887C378.176,455.561 368.922,455.145 358.372,455.145C345.958,455.145 337.313,455.561 330.371,455.887C325.717,456.107 321.679,456.303 317.65,456.322Z" style="fill:rgb(72,71,73);fill-rule:nonzero;"/>
                        <path d="M711.692,309.615C704.461,309.615 697.713,311.506 692.691,314.943C678.896,323.322 671.878,340.051 671.878,364.626C671.878,410.646 694.947,442.782 727.974,442.782C737.716,442.782 745.661,439.985 752.262,434.227C762.411,425.955 767.792,409.063 767.792,385.413C767.792,340.074 745.245,309.615 711.692,309.615ZM718.053,459.852C658.377,459.852 637.116,416.129 637.116,375.218C637.116,346.64 648.815,324.293 671.902,308.807C688.312,298.733 707.9,292.937 725.596,292.937C771.136,292.937 802.948,325.643 802.948,372.477C802.948,404.318 790.236,429.449 766.194,445.155C754.664,452.222 734.656,459.852 718.053,459.852Z" style="fill:rgb(72,71,73);fill-rule:nonzero;"/>
                        <path d="M1329.65,309.615C1322.41,309.615 1315.66,311.506 1310.64,314.943C1296.85,323.322 1289.83,340.046 1289.83,364.626C1289.83,410.646 1312.89,442.782 1345.93,442.782C1355.67,442.782 1363.61,439.985 1370.21,434.222C1380.36,425.955 1385.74,409.068 1385.74,385.417C1385.74,340.079 1363.2,309.615 1329.65,309.615ZM1336,459.852C1276.32,459.852 1255.06,416.134 1255.06,375.223C1255.06,346.635 1266.77,324.288 1289.86,308.802C1306.26,298.728 1325.85,292.937 1343.55,292.937C1389.09,292.937 1420.9,325.648 1420.9,372.472C1420.9,404.323 1408.19,429.453 1384.15,445.15C1372.62,452.222 1352.61,459.852 1336,459.852Z" style="fill:rgb(72,71,73);fill-rule:nonzero;"/>
                        <path d="M1129.95,308.05C1111.56,308.05 1099.67,322.561 1099.67,345.015C1099.67,367.68 1109.89,394.141 1138.7,394.141C1143.65,394.141 1152.61,391.946 1157.05,387.052C1163.74,380.911 1168.11,368.222 1168.11,354.818C1168.11,325.531 1153.85,308.05 1129.95,308.05ZM1127.58,462.986C1120.67,462.986 1115.64,464.994 1112.64,466.68C1098.08,476.002 1091.33,485.315 1091.33,496.033C1091.33,506.144 1095.26,514.177 1103.7,521.318C1113.92,529.972 1127.71,534.179 1145.84,534.179C1181.51,534.179 1197.5,515.022 1197.5,496.033C1197.5,482.821 1190.86,473.962 1177.21,468.955C1166.68,465.111 1149.1,462.986 1127.58,462.986ZM1129.95,554C1108.53,554 1093.1,549.484 1079.91,539.35C1067.08,529.458 1061.34,514.793 1061.34,504.658C1061.34,501.744 1062.03,494.211 1068.36,487.015C1072.1,482.779 1080.74,474.849 1100.71,461.128C1101.33,460.898 1101.75,460.292 1101.75,459.558C1101.75,458.741 1101.23,458.078 1100.5,457.923C1084.04,451.628 1079.07,441.298 1077.58,435.693C1077.56,435.492 1077.49,435.17 1077.42,434.829C1076.94,432.63 1076.5,430.551 1079.48,428.417C1081.78,426.773 1085.48,424.583 1089.4,422.271C1095.19,418.856 1101.75,414.99 1105.38,411.879C1105.95,411.319 1106.19,410.497 1106.05,409.675C1105.91,408.843 1105.43,408.162 1104.72,407.811C1080.36,399.634 1068.09,381.56 1068.09,354.033C1068.09,336.263 1076.29,320.202 1090.59,309.96C1100.39,302.226 1124.98,292.928 1140.92,292.928L1141.84,292.937C1158.23,293.325 1167.47,296.752 1180.26,301.484C1187.2,304.052 1193.78,305.093 1202.97,305.093C1216.54,305.093 1222.46,300.797 1227.55,295.865C1227.84,296.477 1228.53,298.415 1228.84,302.88C1229.16,307.433 1227.92,314.182 1224.43,318.997C1221.66,322.836 1215.23,325.619 1209.16,325.619C1208.55,325.619 1207.95,325.591 1207.38,325.531C1201.13,324.918 1198.19,324.008 1198.17,323.994L1196.63,324.527C1196.15,325.232 1196.46,326.016 1196.86,327.006C1196.96,327.244 1197.05,327.469 1197.09,327.619C1197.89,330.794 1199.3,340.065 1199.3,342.661C1199.3,371.528 1187.9,384.119 1175.58,393.427C1163.82,402.291 1150.07,407.62 1134.58,409.255L1134.57,409.255C1134.25,409.255 1132.79,409.385 1129.83,409.647C1127.92,409.82 1125.54,410.034 1125.19,410.034L1124.84,410.081C1122.15,410.842 1115.17,414.159 1115.17,420.333C1115.17,425.47 1118.34,431.835 1133.43,432.974C1136.49,433.204 1139.78,433.433 1143.21,433.666C1163.15,435.053 1188.05,436.781 1199.76,440.751C1215.88,446.617 1225.91,461.038 1225.91,478.384C1225.91,504.29 1207.47,528.645 1176.59,543.529C1161.61,550.572 1146.4,554 1129.95,554Z" style="fill:rgb(72,71,73);fill-rule:nonzero;"/>
                        <path d="M1032.99,441.904C1024.25,440.727 1017.89,439.55 1010.35,436.02C1009.16,435.235 1007.56,431.705 1007.56,430.528C1006.77,418.367 1006.77,383.064 1006.77,359.922C1006.77,341.092 1003.6,324.62 995.653,312.846C986.119,299.512 972.617,291.667 955.139,291.667C939.652,291.667 918.995,302.259 901.919,316.774C901.521,317.166 898.897,319.651 898.954,315.788C899.015,311.931 899.611,304.08 899.971,299.134C900.33,294.193 897.369,291.863 897.369,291.863C886.247,297.355 854.927,304.79 843.36,305.985C834.906,307.611 832.776,315.73 841.776,318.533L841.776,318.535C841.776,318.549 841.862,318.564 841.911,318.578C851.333,321.409 857.68,324.435 862.418,327.557C865.993,330.304 865.593,334.227 865.593,337.365C865.99,363.645 865.989,404.052 864.797,426.016C864.4,434.647 862.016,437.78 855.661,439.355L856.241,439.158C851.475,440.33 847.502,441.12 841.544,441.904C839.558,443.861 839.558,455.238 841.544,457.596C845.516,457.596 865.775,456.415 882.454,456.415C905.489,456.415 917.406,457.596 923.365,457.596C925.748,454.846 926.543,444.253 924.954,441.904C918.201,441.512 913.434,440.727 908.667,439.55C902.311,437.981 900.722,434.843 900.33,427.782C899.535,409.348 899.535,370.123 899.535,343.446C899.535,335.992 901.521,332.461 903.905,330.499C911.845,323.439 924.954,318.736 936.474,318.736C947.592,318.736 955.139,322.266 960.7,326.969C968.248,333.246 971.028,342.269 971.823,348.938C973.412,363.846 973.01,393.656 973.01,419.543C973.01,433.666 971.823,437.197 966.659,438.766C964.275,439.943 957.92,441.12 950.372,441.904C947.994,444.253 948.784,455.238 950.372,457.596C960.7,457.596 972.617,456.415 990.091,456.415C1011.94,456.415 1025.84,457.596 1031.4,457.596C1033.78,454.846 1034.57,444.646 1032.99,441.904Z" style="fill:rgb(72,71,73);fill-rule:nonzero;"/>
                    </g>
                </g>
            </g>
        </g>
        <g transform="matrix(0.0874421,0,0,0.497656,209.451,682.273)">
            <path d="M283.569,279.033L283.569,274.813L414.785,274.813L406.78,269.89L470.822,276.923L406.78,283.956L414.785,279.033L283.569,279.033Z" style="fill:rgb(176,180,202);stroke:rgb(176,180,202);stroke-width:2.8px;"/>
        </g>
        <g transform="matrix(0.111338,0.142932,-0.3926,0.305821,306.31,712.662)">
            <path d="M283.569,279.033L283.569,274.813L443.777,274.813L439.913,269.89L470.822,276.923L439.913,283.956L443.777,279.033L283.569,279.033Z" style="fill:rgb(176,180,202);stroke:rgb(176,180,202);stroke-width:2.67px;"/>
        </g>
    </g>
    <defs>
        <linearGradient id="_Linear1" x1="0" y1="0" x2="1" y2="0" gradientUnits="userSpaceOnUse" gradientTransform="matrix(166.302,50.6132,-56.1079,149.243,37.5498,275.86)"><stop offset="0" style="stop-color:rgb(153,152,117);stop-opacity:1"/><stop offset="0.6" style="stop-color:rgb(155,156,121);stop-opacity:1"/><stop offset="0.7" style="stop-color:rgb(162,161,128);stop-opacity:1"/><stop offset="0.8" style="stop-color:rgb(177,176,146);stop-opacity:1"/><stop offset="0.9" style="stop-color:rgb(202,201,178);stop-opacity:1"/><stop offset="1" style="stop-color:rgb(253,251,241);stop-opacity:1"/></linearGradient>
        <linearGradient id="_Linear2" x1="0" y1="0" x2="1" y2="0" gradientUnits="userSpaceOnUse" gradientTransform="matrix(116.455,486.419,-452.079,77.9865,98.475,5.51856)"><stop offset="0" style="stop-color:rgb(71,165,71);stop-opacity:1"/><stop offset="1" style="stop-color:rgb(62,146,67);stop-opacity:1"/></linearGradient>
        <linearGradient id="_Linear3" x1="0" y1="0" x2="1" y2="0" gradientUnits="userSpaceOnUse" gradientTransform="matrix(203.822,-63.6906,46.3103,190.308,-12.1124,266.27)"><stop offset="0" style="stop-color:rgb(63,163,72);stop-opacity:1"/><stop offset="1" style="stop-color:rgb(103,182,83);stop-opacity:1"/></linearGradient>
    </defs>
</svg>
