<?xml version="1.0" encoding="UTF-8" standalone="no"?><!DOCTYPE svg PUBLIC "-//W3C//DTD SVG 1.1//EN" "http://www.w3.org/Graphics/SVG/1.1/DTD/svg11.dtd"><svg width="100%" height="100%" viewBox="0 0 442 36" version="1.1" xmlns="http://www.w3.org/2000/svg" xmlns:xlink="http://www.w3.org/1999/xlink" xml:space="preserve" style="fill-rule:evenodd;clip-rule:evenodd;stroke-linecap:round;stroke-linejoin:round;stroke-miterlimit:1.5;"><path d="M86.05,9.841c0,-4.503 -3.656,-8.159 -8.159,-8.159l-68.69,0c-4.503,0 -8.159,3.656 -8.159,8.159l0,16.318c0,4.503 3.656,8.159 8.159,8.159l68.69,0c4.503,0 8.159,-3.656 8.159,-8.159l0,-16.318Z" style="fill:none;stroke:#272c3a;stroke-width:2px;"/><text x="20.097px" y="24.084px" style="font-family:'OpenSans', 'Open Sans', sans-serif;font-size:16px;fill:#272c3a;">task_1</text><path d="M263.656,9.841c0,-4.503 -3.656,-8.159 -8.16,-8.159l-68.689,0c-4.503,0 -8.159,3.656 -8.159,8.159l0,16.318c0,4.503 3.656,8.159 8.159,8.159l68.689,0c4.504,0 8.16,-3.656 8.16,-8.159l0,-16.318Z" style="fill:none;stroke:#272c3a;stroke-width:2px;"/><text x="197.703px" y="24.084px" style="font-family:'OpenSans', 'Open Sans', sans-serif;font-size:16px;fill:#272c3a;">task_2</text><path d="M440.958,9.841c0,-4.503 -3.656,-8.159 -8.159,-8.159l-68.69,0c-4.503,0 -8.159,3.656 -8.159,8.159l0,16.318c0,4.503 3.656,8.159 8.159,8.159l68.69,0c4.503,0 8.159,-3.656 8.159,-8.159l0,-16.318Z" style="fill:none;stroke:#272c3a;stroke-width:2px;"/><text x="375.005px" y="24.084px" style="font-family:'OpenSans', 'Open Sans', sans-serif;font-size:16px;fill:#272c3a;">task_3</text><path d="M92.024,19.514l0,-2.1l75.933,0l-0.7,-2.45l5.6,3.5l-5.6,3.5l0.7,-2.45l-75.933,0Z" style="fill:#b0b4ca;stroke:#b0b4ca;stroke-width:1px;"/><text x="273.843px" y="11.65px" style="font-family:'SourceCodePro-Regular', 'Source Code Pro', monospace;font-size:14px;fill:#f92672;">value: 2</text><text x="95.42px" y="11.65px" style="font-family:'SourceCodePro-Regular', 'Source Code Pro', monospace;font-size:14px;fill:#f92672;">value: 1</text><path d="M269.933,19.514l0,-2.1l75.933,0l-0.7,-2.45l5.6,3.5l-5.6,3.5l0.7,-2.45l-75.933,0Z" style="fill:#b0b4ca;stroke:#b0b4ca;stroke-width:1px;"/><path d="M92.024,19.514l0,-2.1l75.933,0l-0.7,-2.45l5.6,3.5l-5.6,3.5l0.7,-2.45l-75.933,0Z" style="fill:#b0b4ca;stroke:#b0b4ca;stroke-width:1px;"/></svg>