<?xml version="1.0" encoding="UTF-8" standalone="no"?>
<!DOCTYPE svg PUBLIC "-//W3C//DTD SVG 1.1//EN" "http://www.w3.org/Graphics/SVG/1.1/DTD/svg11.dtd">
<svg width="100%" height="100%" viewBox="0 0 442 259" version="1.1" xmlns="http://www.w3.org/2000/svg" xmlns:xlink="http://www.w3.org/1999/xlink" xml:space="preserve" style="fill-rule:evenodd;clip-rule:evenodd;stroke-linecap:round;stroke-linejoin:round;stroke-miterlimit:1.5;">
    <g transform="matrix(1,0,0,1,-9,-239)">
        <g transform="matrix(1,0,0,1,0,-70.6813)">
            <g transform="matrix(0.609375,0,0,0.431681,103.571,232.04)">
                <path d="M305.934,202.637C305.934,192.206 299.934,183.736 292.545,183.736L122.401,183.736C115.011,183.736 109.011,192.206 109.011,202.637L109.011,240.44C109.011,250.871 115.011,259.341 122.401,259.341L292.545,259.341C299.934,259.341 305.934,250.871 305.934,240.44L305.934,202.637Z" style="fill:none;stroke:rgb(39,44,58);stroke-width:3.79px;"/>
            </g>
            <g transform="matrix(1,0,0,1,57.2274,-29.5189)">
                <text x="127.812px" y="363.277px" style="font-family:'OpenSans', 'Open Sans', sans-serif;font-size:16px;fill:rgb(39,44,58);">print_task_1</text>
            </g>
        </g>
        <g transform="matrix(1,0,0,1,159.958,-27.674)">
            <g transform="matrix(0.609375,0,0,0.431681,103.571,232.04)">
                <path d="M305.934,202.637C305.934,192.206 299.934,183.736 292.545,183.736L122.401,183.736C115.011,183.736 109.011,192.206 109.011,202.637L109.011,240.44C109.011,250.871 115.011,259.341 122.401,259.341L292.545,259.341C299.934,259.341 305.934,250.871 305.934,240.44L305.934,202.637Z" style="fill:none;stroke:rgb(39,44,58);stroke-width:3.79px;"/>
            </g>
            <g transform="matrix(1,0,0,1,57.2274,-29.5189)">
                <text x="127.812px" y="363.277px" style="font-family:'OpenSans', 'Open Sans', sans-serif;font-size:16px;fill:rgb(39,44,58);">print_task_2</text>
            </g>
        </g>
        <g transform="matrix(1,0,0,1,159.958,60.5316)">
            <g transform="matrix(0.609375,0,0,0.431681,103.571,232.04)">
                <path d="M305.934,202.637C305.934,192.206 299.934,183.736 292.545,183.736L122.401,183.736C115.011,183.736 109.011,192.206 109.011,202.637L109.011,240.44C109.011,250.871 115.011,259.341 122.401,259.341L292.545,259.341C299.934,259.341 305.934,250.871 305.934,240.44L305.934,202.637Z" style="fill:none;stroke:rgb(39,44,58);stroke-width:3.79px;"/>
            </g>
            <g transform="matrix(1,0,0,1,57.2274,-29.5189)">
                <text x="127.812px" y="363.277px" style="font-family:'OpenSans', 'Open Sans', sans-serif;font-size:16px;fill:rgb(39,44,58);">print_task_3</text>
            </g>
        </g>
        <g transform="matrix(1,0,0,1,159.958,149.195)">
            <g transform="matrix(0.609375,0,0,0.431681,103.571,232.04)">
                <path d="M305.934,202.637C305.934,192.206 299.934,183.736 292.545,183.736L122.401,183.736C115.011,183.736 109.011,192.206 109.011,202.637L109.011,240.44C109.011,250.871 115.011,259.341 122.401,259.341L292.545,259.341C299.934,259.341 305.934,250.871 305.934,240.44L305.934,202.637Z" style="fill:none;stroke:rgb(39,44,58);stroke-width:3.79px;"/>
            </g>
            <g transform="matrix(1,0,0,1,57.2274,-29.5189)">
                <text x="127.812px" y="363.277px" style="font-family:'OpenSans', 'Open Sans', sans-serif;font-size:16px;fill:rgb(39,44,58);">print_task_4</text>
            </g>
        </g>
        <g transform="matrix(1,0,0,1,0,-68.7472)">
            <g transform="matrix(0.609375,0,0,0.431681,103.571,272.655)">
                <path d="M305.934,202.637C305.934,192.206 299.934,183.736 292.545,183.736L122.401,183.736C115.011,183.736 109.011,192.206 109.011,202.637L109.011,240.44C109.011,250.871 115.011,259.341 122.401,259.341L292.545,259.341C299.934,259.341 305.934,250.871 305.934,240.44L305.934,202.637Z" style="fill:none;stroke:rgb(39,44,58);stroke-width:3.79px;"/>
            </g>
            <g transform="matrix(1,0,0,1,57.2274,11.0964)">
                <text x="128.226px" y="363.277px" style="font-family:'OpenSans', 'Open Sans', sans-serif;font-size:16px;fill:rgb(39,44,58);">squar<tspan x="170.593px 179.57px " y="363.277px 363.277px ">e_</tspan>task</text>
            </g>
        </g>
        <g transform="matrix(1,0,0,1,0,-21.2266)">
            <g transform="matrix(0.609375,0,0,0.431681,103.571,313.798)">
                <path d="M305.934,202.637C305.934,192.206 299.934,183.736 292.545,183.736L122.401,183.736C115.011,183.736 109.011,192.206 109.011,202.637L109.011,240.44C109.011,250.871 115.011,259.341 122.401,259.341L292.545,259.341C299.934,259.341 305.934,250.871 305.934,240.44L305.934,202.637Z" style="fill:none;stroke:rgb(39,44,58);stroke-width:3.79px;"/>
            </g>
            <g transform="matrix(1,0,0,1,57.2274,52.2393)">
                <text x="123.718px" y="363.277px" style="font-family:'OpenSans', 'Open Sans', sans-serif;font-size:16px;fill:rgb(39,44,58);">multiply_task</text>
            </g>
        </g>
        <g transform="matrix(1,0,0,1,0,21.5468)">
            <g transform="matrix(0.609375,0,0,0.431681,103.571,359.688)">
                <path d="M305.934,202.637C305.934,192.206 299.934,183.736 292.545,183.736L122.401,183.736C115.011,183.736 109.011,192.206 109.011,202.637L109.011,240.44C109.011,250.871 115.011,259.341 122.401,259.341L292.545,259.341C299.934,259.341 305.934,250.871 305.934,240.44L305.934,202.637Z" style="fill:none;stroke:rgb(39,44,58);stroke-width:3.79px;"/>
            </g>
            <g transform="matrix(1,0,0,1,57.2274,98.1294)">
                <text x="123.257px" y="363.277px" style="font-family:'OpenSans', 'Open Sans', sans-serif;font-size:16px;fill:rgb(39,44,58);">subtr<tspan x="162.374px 171.273px " y="363.277px 363.277px ">ac</tspan>t_task</text>
            </g>
        </g>
        <g transform="matrix(1,0,0,1,0,-68.4064)">
            <g transform="matrix(0.406904,0,0,0.431681,-34.3148,272.773)">
                <path d="M305.934,202.637C305.934,192.206 296.949,183.736 285.882,183.736L129.063,183.736C117.996,183.736 109.011,192.206 109.011,202.637L109.011,240.44C109.011,250.871 117.996,259.341 129.063,259.341L285.882,259.341C296.949,259.341 305.934,250.871 305.934,240.44L305.934,202.637Z" style="fill:none;stroke:rgb(39,44,58);stroke-width:4.77px;"/>
            </g>
            <g transform="matrix(1,0,0,1,-102.73,11.2136)">
                <text x="121.325px" y="363.277px" style="font-family:'OpenSans', 'Open Sans', sans-serif;font-size:16px;fill:rgb(39,44,58);">put_task</text>
            </g>
        </g>
        <g transform="matrix(0.358066,-0.148301,0.190429,0.459781,-57.8349,199.088)">
            <path d="M283.569,279.033L283.569,274.813L458.179,274.813L456.373,269.89L470.822,276.923L456.373,283.956L458.179,279.033L283.569,279.033Z" style="fill:rgb(176,180,202);stroke:rgb(176,180,202);stroke-width:2.24px;"/>
        </g>
        <g transform="matrix(0.444408,0.346787,0.306156,-0.39234,-129.513,332.972)">
            <path d="M283.569,279.033L283.569,274.813L462.129,274.813L460.888,269.89L470.822,276.923L460.888,283.956L462.129,279.033L283.569,279.033Z" style="fill:rgb(176,180,202);stroke:rgb(176,180,202);stroke-width:1.88px;"/>
        </g>
        <g transform="matrix(0.570127,0.817247,-0.408152,0.284734,8.23625,13.2418)">
            <path d="M283.569,279.033L283.569,274.813L465.905,274.813L465.202,269.89L470.822,276.923L465.202,283.956L465.905,279.033L283.569,279.033Z" style="fill:rgb(176,180,202);stroke:rgb(176,180,202);stroke-width:1.27px;"/>
        </g>
        <g transform="matrix(0.365664,0,-2.77556e-17,0.497656,-7.65699,162.187)">
            <path d="M283.569,279.033L283.569,274.813L457.422,274.813L455.507,269.89L470.822,276.923L455.507,283.956L457.422,279.033L283.569,279.033Z" style="fill:rgb(176,180,202);stroke:rgb(176,180,202);stroke-width:2.29px;"/>
        </g>
        <g transform="matrix(1.6332e-17,0.266721,-0.497656,2.71708e-18,367.813,243.878)">
            <path d="M283.569,279.033L283.569,274.813L452.451,274.813L449.826,269.89L470.822,276.923L449.826,283.956L452.451,279.033L283.569,279.033Z" style="fill:rgb(176,180,202);stroke:rgb(176,180,202);stroke-width:2.5px;"/>
        </g>
        <g transform="matrix(0.176801,-2.91054e-33,-2.77556e-17,0.497656,243.068,162.187)">
            <path d="M283.569,279.033L283.569,274.813L443.107,274.813L439.148,269.89L470.822,276.923L439.148,283.956L443.107,279.033L283.569,279.033Z" style="fill:rgb(176,180,202);stroke:rgb(176,180,202);stroke-width:2.68px;"/>
        </g>
        <g transform="matrix(0.92388,-0.382683,0.382683,0.92388,-268.078,174.429)">
            <text x="294.597px" y="232.879px" style="font-family:'SourceCodePro-Regular', 'Source Code Pro', monospace;font-size:14px;fill:rgb(249,38,114);">value: 5</text>
        </g>
        <g transform="matrix(1,5.65074e-17,-1.32953e-16,1,-199.523,83.3537)">
            <text x="295.928px" y="232.879px" style="font-family:'SourceCodePro-Regular', 'Source Code Pro', monospace;font-size:14px;fill:rgb(249,38,114);">value: 5</text>
        </g>
        <g transform="matrix(0.788011,0.615661,-0.615661,0.788011,2.2618,-13.2046)">
            <text x="295.928px" y="232.879px" style="font-family:'SourceCodePro-Regular', 'Source Code Pro', monospace;font-size:14px;fill:rgb(249,38,114);">value: 5</text>
        </g>
        <g transform="matrix(0.572146,0.820152,-0.820152,0.572146,66.3412,-41.8828)">
            <g>
                <text x="294.382px" y="232.879px" style="font-family:'SourceCodePro-Regular', 'Source Code Pro', monospace;font-size:14px;fill:rgb(249,38,114);">value: 5</text>
                <text x="369.982px" y="232.879px" style="font-family:'SourceCodePro-Regular', 'Source Code Pro', monospace;font-size:14px;fill:rgb(58,180,70);">alias: &apos;ﬁrst&apos;</text>
            </g>
        </g>
        <g transform="matrix(1,5.9624e-17,-7.42911e-17,1,-55.7505,195.998)">
            <g>
                <text x="294.382px" y="232.879px" style="font-family:'SourceCodePro-Regular', 'Source Code Pro', monospace;font-size:14px;fill:rgb(249,38,114);">value: 125</text>
                <text x="294.382px" y="252.879px" style="font-family:'SourceCodePro-Regular', 'Source Code Pro', monospace;font-size:14px;fill:rgb(58,180,70);">alias: &apos;second&apos;</text>
            </g>
        </g>
        <g transform="matrix(1,5.65074e-17,-1.32953e-16,1,-55.7505,109.057)">
            <text x="295.779px" y="232.879px" style="font-family:'SourceCodePro-Regular', 'Source Code Pro', monospace;font-size:14px;fill:rgb(249,38,114);">value: 25</text>
        </g>
        <g transform="matrix(1,5.65074e-17,-1.32953e-16,1,4.02794,54.4508)">
            <text x="297.328px" y="232.879px" style="font-family:'SourceCodePro-Regular', 'Source Code Pro', monospace;font-size:14px;fill:rgb(249,38,114);">25</text>
        </g>
        <g transform="matrix(0.176801,-2.91054e-33,-2.77556e-17,0.497656,243.068,250.393)">
            <path d="M283.569,279.033L283.569,274.813L443.107,274.813L439.148,269.89L470.822,276.923L439.148,283.956L443.107,279.033L283.569,279.033Z" style="fill:rgb(176,180,202);stroke:rgb(176,180,202);stroke-width:2.68px;"/>
        </g>
        <g transform="matrix(1,5.65074e-17,-1.32953e-16,1,1.42463,143.114)">
            <text x="295.732px" y="232.879px" style="font-family:'SourceCodePro-Regular', 'Source Code Pro', monospace;font-size:14px;fill:rgb(249,38,114);">125</text>
        </g>
        <g transform="matrix(0.176801,-2.91054e-33,-2.77556e-17,0.497656,243.068,339.056)">
            <path d="M283.569,279.033L283.569,274.813L443.107,274.813L439.148,269.89L470.822,276.923L439.148,283.956L443.107,279.033L283.569,279.033Z" style="fill:rgb(176,180,202);stroke:rgb(176,180,202);stroke-width:2.68px;"/>
        </g>
        <g transform="matrix(1,5.65074e-17,-1.32953e-16,1,-2.14024,264.415)">
            <text x="295.097px" y="232.879px" style="font-family:'SourceCodePro-Regular', 'Source Code Pro', monospace;font-size:14px;fill:rgb(249,38,114);">-120</text>
        </g>
        <g transform="matrix(1.6319e-17,0.266509,-0.497656,2.71708e-18,367.813,332.452)">
            <path d="M283.569,279.033L283.569,274.813L452.436,274.813L449.81,269.89L470.822,276.923L449.81,283.956L452.436,279.033L283.569,279.033Z" style="fill:rgb(176,180,202);stroke:rgb(176,180,202);stroke-width:2.51px;"/>
        </g>
    </g>
</svg>
