<?xml version="1.0" encoding="UTF-8" standalone="no"?><!DOCTYPE svg PUBLIC "-//W3C//DTD SVG 1.1//EN" "http://www.w3.org/Graphics/SVG/1.1/DTD/svg11.dtd"><svg width="100%" height="100%" viewBox="0 0 730 585" version="1.1" xmlns="http://www.w3.org/2000/svg" xmlns:xlink="http://www.w3.org/1999/xlink" xml:space="preserve" style="fill-rule:evenodd;clip-rule:evenodd;stroke-linecap:round;stroke-linejoin:round;stroke-miterlimit:1.5;"><path d="M15.479,292.033c0,0 307.87,0 310.377,0" style="fill:none;stroke:#0079c1;stroke-width:20px;"/><path d="M355.899,211.671c0,0 31.121,31.519 31.32,31.718" style="fill:none;stroke:#0079c1;stroke-width:12px;stroke-linecap:butt;"/><path d="M576.122,151.437c0,0 26.672,-26.336 26.84,-26.504" style="fill:none;stroke:#0079c1;stroke-width:12px;stroke-linecap:butt;"/><path d="M505.16,292.637c0,0 44.305,0.281 44.587,0.281" style="fill:none;stroke:#0079c1;stroke-width:12px;stroke-linecap:butt;"/><path d="M634.548,293.728c0,0 37.478,0.238 37.715,0.238" style="fill:none;stroke:#0079c1;stroke-width:12px;stroke-linecap:butt;"/><path d="M436.071,405.628c0,0 0.281,-44.303 0.281,-44.584" style="fill:none;stroke:#0079c1;stroke-width:12px;stroke-linecap:butt;"/><path d="M435.193,528.164c0,0 0.238,-37.47 0.238,-37.708" style="fill:none;stroke:#0079c1;stroke-width:12px;stroke-linecap:butt;"/><path d="M435.193,223.022c0,0 0.281,-44.302 0.281,-44.584" style="fill:none;stroke:#0079c1;stroke-width:12px;stroke-linecap:butt;"/><path d="M436.078,93.604c0,0 0.238,-37.445 0.238,-37.683" style="fill:none;stroke:#0079c1;stroke-width:12px;stroke-linecap:butt;"/><path d="M355.954,372.459c0,0 31.523,-31.126 31.722,-31.325" style="fill:none;stroke:#0079c1;stroke-width:12px;stroke-linecap:butt;"/><path d="M268.883,458.676c0,0 26.673,-26.336 26.841,-26.505" style="fill:none;stroke:#0079c1;stroke-width:12px;stroke-linecap:butt;"/><path d="M484.627,242.932c0,0 31.523,-31.126 31.722,-31.325" style="fill:none;stroke:#0079c1;stroke-width:12px;stroke-linecap:butt;"/><path d="M485.446,340.314c0,0 31.126,31.524 31.325,31.723" style="fill:none;stroke:#0079c1;stroke-width:12px;stroke-linecap:butt;"/><path d="M577.475,431.25c0,0 26.349,26.685 26.517,26.853" style="fill:none;stroke:#0079c1;stroke-width:12px;stroke-linecap:butt;"/><path d="M269.447,124.869c0,0 26.315,26.652 26.483,26.82" style="fill:none;stroke:#0079c1;stroke-width:12px;stroke-linecap:butt;"/><circle cx="436.152" cy="292.033" r="69.011" style="fill:none;stroke:#0079c1;stroke-width:18px;"/><circle cx="251.981" cy="107.863" r="24.396" style="fill:none;stroke:#0079c1;stroke-width:12px;"/><circle cx="436.152" cy="31.526" r="24.396" style="fill:none;stroke:#0079c1;stroke-width:12px;"/><circle cx="620.322" cy="107.863" r="24.396" style="fill:none;stroke:#0079c1;stroke-width:12px;"/><circle cx="696.659" cy="292.033" r="24.396" style="fill:none;stroke:#0079c1;stroke-width:12px;"/><circle cx="620.322" cy="476.203" r="24.396" style="fill:none;stroke:#0079c1;stroke-width:12px;"/><circle cx="436.152" cy="552.54" r="24.396" style="fill:none;stroke:#0079c1;stroke-width:12px;"/><circle cx="251.981" cy="476.203" r="24.396" style="fill:none;stroke:#0079c1;stroke-width:12px;"/><circle cx="325.856" cy="181.738" r="42.418" style="fill:none;stroke:#64e800;stroke-width:16px;"/><circle cx="436.152" cy="136.021" r="42.418" style="fill:none;stroke:#64e800;stroke-width:16px;"/><circle cx="546.447" cy="181.738" r="42.418" style="fill:none;stroke:#64e800;stroke-width:16px;"/><circle cx="592.164" cy="292.033" r="42.418" style="fill:none;stroke:#64e800;stroke-width:16px;"/><circle cx="546.447" cy="402.328" r="42.418" style="fill:none;stroke:#64e800;stroke-width:16px;"/><circle cx="436.152" cy="448.045" r="42.418" style="fill:none;stroke:#64e800;stroke-width:16px;"/><circle cx="325.856" cy="402.328" r="42.418" style="fill:none;stroke:#64e800;stroke-width:16px;"/></svg>