<?xml version="1.0" encoding="UTF-8" standalone="no"?><!DOCTYPE svg PUBLIC "-//W3C//DTD SVG 1.1//EN" "http://www.w3.org/Graphics/SVG/1.1/DTD/svg11.dtd"><svg width="100%" height="100%" viewBox="0 0 250 554" version="1.1" xmlns="http://www.w3.org/2000/svg" xmlns:xlink="http://www.w3.org/1999/xlink" xml:space="preserve" style="fill-rule:evenodd;clip-rule:evenodd;stroke-linejoin:round;stroke-miterlimit:1.41421;"><g><path d="M133.25,540.152l-14.468,-4.791c0,0 1.844,-73.222 -24.563,-78.348c-17.415,-20.178 2.678,-861.894 65.942,-2.886c0,0 -21.654,10.874 -25.752,29.336c-4.097,18.474 -1.159,56.689 -1.159,56.689Z" style="fill:#3c3c3c;"/><path d="M141.049,469.443c0,0 125.715,-82.799 96.262,-254.757c-28.364,-124.929 -95.328,-165.997 -102.525,-181.678c-7.921,-11.096 -15.9,-30.761 -15.9,-30.761l5.347,348.088c0,0 -11.062,106.287 16.816,119.108Z" style="fill:#242424;"/><path d="M111.422,474.069c0,0 -117.925,-80.446 -111.14,-222.387c6.785,-141.944 90.075,-211.733 106.297,-224.394c10.487,-11.183 10.921,-15.49 11.732,-26.518c7.351,15.788 6.13,235.851 6.908,261.571c3.023,100.127 -5.545,192.828 -13.797,211.728Z" style="fill:#5a5a5a;"/></g></svg>