<?xml version="1.0" encoding="UTF-8" standalone="no"?><!DOCTYPE svg PUBLIC "-//W3C//DTD SVG 1.1//EN" "http://www.w3.org/Graphics/SVG/1.1/DTD/svg11.dtd"><svg width="100%" height="100%" viewBox="0 0 120 115" version="1.1" xmlns="http://www.w3.org/2000/svg" xmlns:xlink="http://www.w3.org/1999/xlink" xml:space="preserve" style="fill-rule:evenodd;clip-rule:evenodd;stroke-linejoin:round;stroke-miterlimit:1.41421;"><g id="g2303"><path id="path1948" d="M59.338,1.306c-4.584,0.022 -8.961,0.413 -12.812,1.094c-11.347,2.005 -13.407,6.2 -13.407,13.938l0,10.218l26.813,0l0,3.407l-26.813,0l-10.062,0c-7.793,0 -14.616,4.683 -16.75,13.593c-2.462,10.213 -2.571,16.586 0,27.25c1.906,7.938 6.457,13.594 14.25,13.594l9.219,0l0,-12.25c0,-8.85 7.657,-16.656 16.75,-16.656l26.781,0c7.455,0 13.406,-6.138 13.406,-13.625l0,-25.531c0,-7.267 -6.13,-12.725 -13.406,-13.938c-4.606,-0.767 -9.385,-1.115 -13.969,-1.094Zm-14.5,8.219c2.77,0 5.031,2.299 5.031,5.125c0,2.817 -2.261,5.094 -5.031,5.094c-2.779,0 -5.031,-2.277 -5.031,-5.094c0,-2.826 2.252,-5.125 5.031,-5.125Z" style="fill:#242424;fill-rule:nonzero;"/><path id="path1950" d="M90.057,29.963l0,11.906c0,9.231 -7.826,17 -16.75,17l-26.781,0c-7.336,0 -13.407,6.278 -13.407,13.625l0,25.531c0,7.267 6.319,11.54 13.407,13.625c8.487,2.496 16.626,2.947 26.781,0c6.75,-1.954 13.406,-5.887 13.406,-13.625l0,-10.219l-26.781,0l0,-3.406l40.187,0c7.793,0 10.697,-5.435 13.407,-13.594c2.799,-8.398 2.68,-16.475 0,-27.25c-1.926,-7.757 -5.604,-13.593 -13.407,-13.593l-10.062,0Zm-15.063,64.656c2.78,0 5.032,2.277 5.032,5.094c0,2.826 -2.252,5.125 -5.032,5.125c-2.769,0 -5.031,-2.299 -5.031,-5.125c0,-2.817 2.262,-5.094 5.031,-5.094Z" style="fill:#5a5a5a;fill-rule:nonzero;"/></g></svg>