<?xml version="1.0" encoding="UTF-8" standalone="no"?><!DOCTYPE svg PUBLIC "-//W3C//DTD SVG 1.1//EN" "http://www.w3.org/Graphics/SVG/1.1/DTD/svg11.dtd"><svg width="100%" height="100%" viewBox="0 0 180 156" version="1.1" xmlns="http://www.w3.org/2000/svg" xmlns:xlink="http://www.w3.org/1999/xlink" xml:space="preserve" style="fill-rule:evenodd;clip-rule:evenodd;stroke-linejoin:round;stroke-miterlimit:1.41421;"><g><path d="M168.444,117.427c-9.078,4.732 -56.106,24.068 -66.118,29.287c-10.012,5.221 -15.574,5.17 -23.483,1.389c-7.909,-3.781 -57.955,-23.996 -66.97,-28.305c-4.506,-2.154 -6.875,-3.971 -6.875,-5.688l0,-17.195c0,0 65.153,-14.184 75.672,-17.957c10.518,-3.774 14.167,-3.91 23.118,-0.631c8.952,3.279 62.474,12.936 71.321,16.176c0,0 -0.004,15.357 -0.004,16.951c0.001,1.7 -2.04,3.565 -6.661,5.973l0,0Z" style="fill:#242424;fill-rule:nonzero;"/><path d="M168.444,100.227c-9.078,4.73 -56.106,24.068 -66.118,29.287c-10.012,5.221 -15.574,5.17 -23.483,1.389c-7.91,-3.779 -57.955,-23.998 -66.97,-28.305c-9.015,-4.309 -9.204,-7.275 -0.348,-10.742c8.855,-3.469 58.626,-22.996 69.146,-26.77c10.518,-3.772 14.167,-3.91 23.118,-0.63c8.952,3.279 55.699,21.886 64.545,25.126c8.848,3.243 9.188,5.913 0.11,10.645l0,0Z" style="fill:#5a5a5a;fill-rule:nonzero;"/><path d="M168.444,89.387c-9.078,4.732 -56.106,24.068 -66.118,29.289c-10.012,5.219 -15.574,5.168 -23.483,1.387c-7.91,-3.779 -57.955,-23.996 -66.97,-28.305c-4.506,-2.154 -6.875,-3.969 -6.875,-5.686l0,-17.197c0,0 65.153,-14.183 75.672,-17.957c10.518,-3.773 14.167,-3.91 23.118,-0.631c8.952,3.279 62.474,12.934 71.321,16.175c0,0 -0.004,15.357 -0.004,16.953c0.001,1.699 -2.04,3.564 -6.661,5.972l0,0Z" style="fill:#242424;fill-rule:nonzero;"/><path d="M168.444,72.187c-9.078,4.732 -56.106,24.068 -66.118,29.289c-10.012,5.219 -15.574,5.168 -23.483,1.387c-7.91,-3.779 -57.955,-23.997 -66.97,-28.305c-9.015,-4.308 -9.204,-7.274 -0.348,-10.743c8.855,-3.467 58.626,-22.995 69.146,-26.768c10.518,-3.773 14.167,-3.91 23.118,-0.631c8.952,3.279 55.699,21.885 64.545,25.126c8.848,3.242 9.188,5.913 0.11,10.645l0,0Z" style="fill:#5a5a5a;fill-rule:nonzero;"/><path d="M168.444,60.307c-9.078,4.732 -56.106,24.069 -66.118,29.29c-10.012,5.219 -15.574,5.168 -23.483,1.387c-7.91,-3.779 -57.955,-23.997 -66.97,-28.305c-4.506,-2.154 -6.875,-3.97 -6.875,-5.686l0,-17.197c0,0 65.153,-14.183 75.672,-17.956c10.518,-3.774 14.167,-3.91 23.118,-0.631c8.952,3.279 62.474,12.934 71.321,16.175c0,0 -0.004,15.357 -0.004,16.952c0.001,1.698 -2.04,3.563 -6.661,5.971l0,0Z" style="fill:#242424;fill-rule:nonzero;"/><path d="M168.444,43.107c-9.078,4.732 -56.106,24.069 -66.118,29.289c-10.012,5.219 -15.574,5.168 -23.483,1.388c-7.909,-3.78 -57.955,-23.997 -66.97,-28.305c-9.015,-4.308 -9.204,-7.275 -0.348,-10.743c8.855,-3.468 58.626,-22.994 69.146,-26.768c10.518,-3.774 14.167,-3.91 23.118,-0.63c8.952,3.279 55.699,21.885 64.545,25.126c8.848,3.24 9.188,5.912 0.11,10.643Z" style="fill:#5a5a5a;fill-rule:nonzero;"/><path d="M112.344,26.547l-14.74,1.53l-3.3,7.94l-5.33,-8.86l-17.02,-1.53l12.7,-4.58l-3.81,-7.03l11.89,4.65l11.21,-3.67l-3.03,7.27l11.43,4.28Z" style="fill:#fff;fill-rule:nonzero;"/><path d="M93.424,65.067l-27.51,-11.41l39.42,-6.05l-11.91,17.46Z" style="fill:#fff;fill-rule:nonzero;"/><ellipse cx="55.284" cy="39.127" rx="21.069" ry="8.167" style="fill:#fff;"/><path d="M129.764,28.717l23.33,9.22l-23.31,9.21l-0.02,-18.43Z" style="fill-rule:nonzero;"/><path d="M103.954,38.927l25.81,-10.21l0.02,18.43l-2.53,0.99l-23.3,-9.21Z" style="fill:#242424;fill-rule:nonzero;"/></g></svg>